<?xml version="1.0" encoding="UTF-8"?>
<svg width="800px" height="600px" viewBox="0 0 800 600" version="1.1" xmlns="http://www.w3.org/2000/svg" xmlns:xlink="http://www.w3.org/1999/xlink">
    <title>Fitness Illustration</title>
    <defs>
        <linearGradient x1="0%" y1="0%" x2="100%" y2="100%" id="linearGradient-1">
            <stop stop-color="#4F46E5" offset="0%"></stop>
            <stop stop-color="#7E22CE" offset="100%"></stop>
        </linearGradient>
        <linearGradient x1="0%" y1="0%" x2="100%" y2="100%" id="linearGradient-2">
            <stop stop-color="#EF4444" offset="0%"></stop>
            <stop stop-color="#EC4899" offset="100%"></stop>
        </linearGradient>
        <linearGradient x1="0%" y1="0%" x2="100%" y2="100%" id="linearGradient-3">
            <stop stop-color="#10B981" offset="0%"></stop>
            <stop stop-color="#3B82F6" offset="100%"></stop>
        </linearGradient>
    </defs>
    <g id="Fitness-Illustration" stroke="none" stroke-width="1" fill="none" fill-rule="evenodd">
        <!-- Background Elements -->
        <circle id="Bg-Circle-1" fill="url(#linearGradient-1)" opacity="0.1" cx="150" cy="450" r="100"></circle>
        <circle id="Bg-Circle-2" fill="url(#linearGradient-2)" opacity="0.1" cx="650" cy="150" r="80"></circle>
        <circle id="Bg-Circle-3" fill="url(#linearGradient-3)" opacity="0.1" cx="400" cy="80" r="50"></circle>
        
        <!-- Runner Figure -->
        <g id="Runner" transform="translate(250.000000, 200.000000)">
            <!-- Body -->
            <path d="M150,80 C180,80 205,105 205,135 C205,165 180,190 150,190 L140,190 C110,190 85,165 85,135 C85,105 110,80 140,80 L150,80 Z" id="Body" fill="#3B82F6" opacity="0.9"></path>
            
            <!-- Head -->
            <circle id="Head" fill="#3B82F6" cx="150" cy="60" r="30"></circle>
            
            <!-- Left Arm -->
            <path d="M100,110 C80,130 50,160 30,180 C25,185 25,195 30,200 C35,205 45,205 50,200 C70,180 100,150 120,130" id="LeftArm" stroke="#3B82F6" stroke-width="15" stroke-linecap="round"></path>
            
            <!-- Right Arm -->
            <path d="M200,110 C220,130 250,160 270,180 C275,185 275,195 270,200 C265,205 255,205 250,200 C230,180 200,150 180,130" id="RightArm" stroke="#3B82F6" stroke-width="15" stroke-linecap="round"></path>
            
            <!-- Left Leg -->
            <path d="M120,190 C110,220 80,260 60,290 C55,295 55,305 60,310 C65,315 75,315 80,310 C100,280 120,240 130,210" id="LeftLeg" stroke="#3B82F6" stroke-width="15" stroke-linecap="round"></path>
            
            <!-- Right Leg -->
            <path d="M180,190 C190,220 220,260 240,290 C245,295 245,305 240,310 C235,315 225,315 220,310 C200,280 180,240 170,210" id="RightLeg" stroke="#3B82F6" stroke-width="15" stroke-linecap="round"></path>
        </g>
        
        <!-- Heart Rate Line -->
        <path d="M50,100 L100,100 L125,50 L150,150 L175,50 L200,100 L250,100 L275,50 L300,150 L325,50 L350,100 L400,100 L425,50 L450,150 L475,50 L500,100 L550,100 L575,50 L600,150 L625,50 L650,100 L700,100 L750,100" id="HeartRate" stroke="url(#linearGradient-2)" stroke-width="4" stroke-linecap="round"></path>
        
        <!-- Fitness Elements -->
        <g id="Elements" transform="translate(100.000000, 400.000000)">
            <!-- Dumbbell -->
            <g id="Dumbbell" transform="translate(0.000000, 20.000000)">
                <rect id="Bar" fill="#4F46E5" x="40" y="25" width="120" height="10" rx="5"></rect>
                <circle id="Weight-Left-1" fill="#4F46E5" cx="30" cy="30" r="20"></circle>
                <circle id="Weight-Left-2" fill="#4F46E5" cx="50" cy="30" r="20"></circle>
                <circle id="Weight-Right-1" fill="#4F46E5" cx="150" cy="30" r="20"></circle>
                <circle id="Weight-Right-2" fill="#4F46E5" cx="170" cy="30" r="20"></circle>
            </g>
            
            <!-- Apple -->
            <g id="Apple" transform="translate(240.000000, 0.000000)">
                <path d="M40,20 C45,10 55,10 60,20 C65,10 70,0 80,0 C90,0 95,10 90,20 C85,30 80,35 80,35 L40,35 C40,35 35,30 30,20 C25,10 30,0 40,0 C50,0 55,10 60,20 Z" id="Leaf" fill="#10B981"></path>
                <circle id="Apple-Body" fill="#EF4444" cx="60" cy="60" r="30"></circle>
            </g>
            
            <!-- Water Bottle -->
            <g id="Water-Bottle" transform="translate(450.000000, 0.000000)">
                <path d="M40,10 L60,10 L65,30 L65,90 C65,95 60,100 55,100 L45,100 C40,100 35,95 35,90 L35,30 L40,10 Z" id="Bottle" fill="#3B82F6" opacity="0.7"></path>
                <path d="M40,10 L60,10 L60,0 L40,0 Z" id="Cap" fill="#1D4ED8"></path>
            </g>
        </g>
        
        <!-- Progress Chart -->
        <g id="Progress-Chart" transform="translate(550.000000, 350.000000)">
            <rect id="Chart-Bg" fill="#F9FAFB" opacity="0.5" x="0" y="0" width="200" height="150" rx="10"></rect>
            <path d="M20,130 L20,30 L180,30" id="Axis" stroke="#6B7280" stroke-width="2" stroke-linecap="round"></path>
            <path d="M20,110 L50,90 L80,100 L110,70 L140,50 L170,30" id="Line" stroke="url(#linearGradient-1)" stroke-width="3" stroke-linecap="round"></path>
            <circle id="Point-1" fill="#4F46E5" cx="50" cy="90" r="5"></circle>
            <circle id="Point-2" fill="#4F46E5" cx="80" cy="100" r="5"></circle>
            <circle id="Point-3" fill="#4F46E5" cx="110" cy="70" r="5"></circle>
            <circle id="Point-4" fill="#4F46E5" cx="140" cy="50" r="5"></circle>
            <circle id="Point-5" fill="#4F46E5" cx="170" cy="30" r="5"></circle>
        </g>
    </g>
</svg>