<svg xmlns="http://www.w3.org/2000/svg" viewBox="0 0 800 600" fill="none">
  <rect width="800" height="600" fill="#f8f9fa"/>
  <circle cx="207" cy="183" r="60" fill="#6366f1" opacity="0.8"/>
  <path d="M262 183C258.5 173 244.5 164.5 230 170.5C215.5 176.5 202 192 202 209.5C202 227 208 242 236.5 242C265 242 265 225.5 265 209.5C265 193.5 265.5 193 262 183Z" fill="#8b5cf6"/>
  <path d="M230 290L270 210L295 236L325 210L370 290L390 360L270 410L220 350L230 290Z" fill="#d1d5db"/>
  <path d="M230 290C230 290 240 280 250 275C260 270 275 272 285 280C295 288 305 305 305 320C305 335 300 355 290 365C280 375 260 380 250 375C240 370 230 360 225 350C220 340 230 290 230 290Z" fill="#f3f4f6"/>
  <path d="M268 100L268 165L370 210L440 235L450 205L390 170L320 135L268 100Z" fill="#f3f4f6"/>
  <path d="M268 100C268 100 275 95 285 90C295 85 310 83 325 90C340 97 355 115 360 130C365 145 365 160 355 170C345 180 325 185 310 182C295 179 280 170 270 155C260 140 268 100 268 100Z" fill="#f3f4f6"/>
  <path d="M220 350L190 470L240 520L320 490L390 360" stroke="#6366f1" stroke-width="10" stroke-linecap="round"/>
  <path d="M390 360L460 430L520 420L560 370L540 320L510 290L460 275L390 360Z" fill="#f3f4f6"/>
  <path d="M390 360C390 360 400 375 410 385C420 395 435 405 450 410C465 415 485 415 500 410C515 405 525 395 530 380C535 365 535 345 525 330C515 315 495 305 480 300C465 295 445 297 430 305C415 313 390 360 390 360Z" fill="#f3f4f6"/>
  <ellipse cx="207" cy="183" rx="17" ry="17" fill="#f3f4f6"/>
</svg>