<svg xmlns="http://www.w3.org/2000/svg" viewBox="0 0 800 600" fill="none">
  <rect width="800" height="600" fill="#f8f9fa"/>
  <path d="M100 300C100 300 200 250 300 250C400 250 450 280 500 300C550 320 600 330 650 330C700 330 750 320 750 320" stroke="#3b82f6" stroke-width="15" stroke-linecap="round" stroke-dasharray="30 20"/>
  <path d="M100 350C100 350 200 300 300 300C400 300 450 330 500 350C550 370 600 380 650 380C700 380 750 370 750 370" stroke="#60a5fa" stroke-width="15" stroke-linecap="round" stroke-dasharray="30 20"/>
  <path d="M100 400C100 400 200 350 300 350C400 350 450 380 500 400C550 420 600 430 650 430C700 430 750 420 750 420" stroke="#93c5fd" stroke-width="15" stroke-linecap="round" stroke-dasharray="30 20"/>
  <circle cx="350" cy="180" r="60" fill="#0ea5e9" opacity="0.8"/>
  <path d="M350 180C346.5 170 332.5 161.5 318 167.5C303.5 173.5 290 189 290 206.5C290 224 296 239 324.5 239C353 239 353 222.5 353 206.5C353 190.5 353.5 190 350 180Z" fill="#0284c7"/>
  <ellipse cx="350" cy="180" rx="17" ry="17" fill="#f3f4f6"/>
  <path d="M350 240L380 250L420 270L450 300L470 340L480 380L470 420L440 450L400 470L350 480L300 470L260 450L230 420L220 380L230 340L250 300L280 270L320 250L350 240Z" fill="#bfdbfe" opacity="0.3"/>
  <path d="M350 260C350 260 370 260 390 270C410 280 425 295 435 315C445 335 445 355 435 375C425 395 410 410 390 420C370 430 350 430 330 420C310 410 295 395 285 375C275 355 275 335 285 315C295 295 310 280 330 270C350 260 350 260 350 260Z" stroke="#3b82f6" stroke-width="8" stroke-linecap="round"/>
  <path d="M280 290L240 270L210 260L180 260L150 270L130 290L120 320L120 350L130 380L150 400L180 410L210 410L240 400L260 380" stroke="#60a5fa" stroke-width="6" stroke-linecap="round"/>
  <path d="M420 290L460 270L490 260L520 260L550 270L570 290L580 320L580 350L570 380L550 400L520 410L490 410L460 400L440 380" stroke="#60a5fa" stroke-width="6" stroke-linecap="round"/>
</svg>