<svg xmlns="http://www.w3.org/2000/svg" viewBox="0 0 800 600" fill="none">
  <rect width="800" height="600" fill="#f8f9fa"/>
  <circle cx="400" cy="160" r="60" fill="#8b5cf6" opacity="0.8"/>
  <path d="M400 160C396.5 150 382.5 141.5 368 147.5C353.5 153.5 340 169 340 186.5C340 204 346 219 374.5 219C403 219 403 202.5 403 186.5C403 170.5 403.5 170 400 160Z" fill="#6366f1"/>
  <ellipse cx="400" cy="160" rx="17" ry="17" fill="#f3f4f6"/>
  <rect x="155" y="315" width="490" height="30" rx="15" fill="#9ca3af"/>
  <rect x="115" y="295" width="30" height="70" rx="10" fill="#6b7280"/>
  <rect x="655" y="295" width="30" height="70" rx="10" fill="#6b7280"/>
  <rect x="85" y="285" width="20" height="90" rx="10" fill="#4b5563"/>
  <rect x="695" y="285" width="20" height="90" rx="10" fill="#4b5563"/>
  <rect x="185" y="365" width="150" height="30" rx="15" fill="#9ca3af"/>
  <rect x="465" y="365" width="150" height="30" rx="15" fill="#9ca3af"/>
  <rect x="320" y="220" width="160" height="25" rx="12.5" fill="#9ca3af"/>
  <path d="M350 245L330 295" stroke="#9ca3af" stroke-width="10" stroke-linecap="round"/>
  <path d="M450 245L470 295" stroke="#9ca3af" stroke-width="10" stroke-linecap="round"/>
  <path d="M320 420C320 420 338 450 400 450C462 450 480 420 480 420" stroke="#6366f1" stroke-width="10" stroke-linecap="round"/>
  <path d="M290 460C290 460 330 510 400 510C470 510 510 460 510 460" stroke="#8b5cf6" stroke-width="10" stroke-linecap="round"/>
</svg>