<svg xmlns="http://www.w3.org/2000/svg" viewBox="0 0 800 600" fill="none">
  <rect width="800" height="600" fill="#f8f9fa"/>
  <circle cx="220" cy="140" r="60" fill="#ec4899" opacity="0.7"/>
  <path d="M220 140C216.5 130 202.5 121.5 188 127.5C173.5 133.5 160 149 160 166.5C160 184 166 199 194.5 199C223 199 223 182.5 223 166.5C223 150.5 223.5 150 220 140Z" fill="#db2777"/>
  <ellipse cx="220" cy="140" rx="17" ry="17" fill="#f3f4f6"/>
  <path d="M220 220C220 220 230 270 240 290C250 310 270 320 290 330C310 340 330 350 360 345C390 340 420 320 440 300C460 280 470 260 475 240C480 220 480 200 475 180C470 160 460 140 440 130C420 120 390 120 370 130C350 140 330 160 320 180C310 200 300 220 290 240C280 260 270 280 265 300C260 320 260 340 270 360C280 380 300 390 320 395C340 400 360 400 380 390C400 380 410 370 420 350" stroke="#6366f1" stroke-width="10" stroke-linecap="round"/>
  <path d="M600 440C600 440 590 420 570 410C550 400 520 400 500 410C480 420 470 440 470 460C470 480 480 500 500 510C520 520 550 520 570 510C590 500 600 480 600 460C600 440 590 420 570 410" stroke="#8b5cf6" stroke-width="10" stroke-linecap="round"/>
  <path d="M490 200C490 200 480 220 460 230C440 240 410 240 390 230C370 220 360 200 360 180C360 160 370 140 390 130C410 120 440 120 460 130C480 140 490 160 490 180C490 200 480 220 460 230" stroke="#ec4899" stroke-width="10" stroke-linecap="round"/>
  <ellipse cx="600" cy="400" rx="50" ry="10" fill="#d1d5db" opacity="0.7"/>
  <ellipse cx="220" cy="440" rx="70" ry="10" fill="#d1d5db" opacity="0.7"/>
  <ellipse cx="425" cy="500" rx="100" ry="10" fill="#d1d5db" opacity="0.7"/>
</svg>